<?xml version="1.0" encoding="utf-8"?>
<!-- Generator: Adobe Illustrator 23.0.0, SVG Export Plug-In . SVG Version: 6.00 Build 0)  -->
<svg version="1.1" id="Слой_1" xmlns="http://www.w3.org/2000/svg" xmlns:xlink="http://www.w3.org/1999/xlink" x="0px" y="0px"
	 viewBox="0 0 491.3 437.9" style="enable-background:new 0 0 491.3 437.9;" xml:space="preserve">
<style type="text/css">
	.st0{fill:#61DAFB;}
</style>
<g>
	<path class="st0" d="M491.3,219.5c0-32.5-40.7-63.3-103.1-82.4c14.4-63.6,8-114.2-20.2-130.4c-6.5-3.8-14.1-5.6-22.4-5.6v22.3
		c4.6,0,8.3,0.9,11.4,2.6c13.6,7.8,19.5,37.5,14.9,75.7c-1.1,9.4-2.9,19.3-5.1,29.4c-19.6-4.8-41-8.5-63.5-10.9
		c-13.5-18.5-27.5-35.3-41.6-50c32.6-30.3,63.2-46.9,84-46.9V1c-27.5,0-63.5,19.6-99.9,53.6c-36.4-33.8-72.4-53.2-99.9-53.2v22.3
		c20.7,0,51.4,16.5,84,46.6c-14,14.7-28,31.4-41.3,49.9c-22.6,2.4-44,6.1-63.6,11c-2.3-10-4-19.7-5.2-29
		c-4.7-38.2,1.1-67.9,14.6-75.8c3-1.8,6.9-2.6,11.5-2.6V1.5c-8.4,0-16,1.8-22.6,5.6c-28.1,16.2-34.4,66.7-19.9,130.1
		C41.2,156.4,0.7,187.1,0.7,219.5c0,32.5,40.7,63.3,103.1,82.4c-14.4,63.6-8,114.2,20.2,130.4c6.5,3.8,14.1,5.6,22.5,5.6
		c27.5,0,63.5-19.6,99.9-53.6c36.4,33.8,72.4,53.2,99.9,53.2c8.4,0,16-1.8,22.6-5.6c28.1-16.2,34.4-66.7,19.9-130.1
		C450.8,282.7,491.3,251.9,491.3,219.5L491.3,219.5z M361.1,152.8c-3.7,12.9-8.3,26.2-13.5,39.5c-4.1-8-8.4-16-13.1-24
		c-4.6-8-9.5-15.8-14.4-23.4C334.3,147,348,149.6,361.1,152.8L361.1,152.8z M315.3,259.3c-7.8,13.5-15.8,26.3-24.1,38.2
		c-14.9,1.3-30,2-45.2,2c-15.1,0-30.2-0.7-45-1.9c-8.3-11.9-16.4-24.6-24.2-38c-7.6-13.1-14.5-26.4-20.8-39.8
		c6.2-13.4,13.2-26.8,20.7-39.9c7.8-13.5,15.8-26.3,24.1-38.2c14.9-1.3,30-2,45.2-2c15.1,0,30.2,0.7,45,1.9
		c8.3,11.9,16.4,24.6,24.2,38c7.6,13.1,14.5,26.4,20.8,39.8C329.7,232.8,322.8,246.2,315.3,259.3L315.3,259.3z M347.6,246.3
		c5.4,13.4,10,26.8,13.8,39.8c-13.1,3.2-26.9,5.9-41.2,8c4.9-7.7,9.8-15.6,14.4-23.7C339.2,262.4,343.5,254.3,347.6,246.3
		L347.6,246.3z M246.2,353c-9.3-9.6-18.6-20.3-27.8-32c9,0.4,18.2,0.7,27.5,0.7c9.4,0,18.7-0.2,27.8-0.7
		C264.7,332.7,255.4,343.4,246.2,353z M171.8,294.1c-14.2-2.1-27.9-4.7-41-7.9c3.7-12.9,8.3-26.2,13.5-39.5c4.1,8,8.4,16,13.1,24
		S166.9,286.5,171.8,294.1z M245.7,86c9.3,9.6,18.6,20.3,27.8,32c-9-0.4-18.2-0.7-27.5-0.7c-9.4,0-18.7,0.2-27.8,0.7
		C227.2,106.3,236.5,95.6,245.7,86z M171.7,144.9c-4.9,7.7-9.8,15.6-14.4,23.7c-4.6,8-8.9,16-13,24c-5.4-13.4-10-26.8-13.8-39.8
		C143.6,149.7,157.4,147,171.7,144.9L171.7,144.9z M81.2,270.1c-35.4-15.1-58.3-34.9-58.3-50.6s22.9-35.6,58.3-50.6
		c8.6-3.7,18-7,27.7-10.1c5.7,19.6,13.2,40,22.5,60.9c-9.2,20.8-16.6,41.1-22.2,60.6C99.3,277.2,89.9,273.8,81.2,270.1L81.2,270.1z
		 M135,413c-13.6-7.8-19.5-37.5-14.9-75.7c1.1-9.4,2.9-19.3,5.1-29.4c19.6,4.8,41,8.5,63.5,10.9c13.5,18.5,27.5,35.3,41.6,50
		c-32.6,30.3-63.2,46.9-84,46.9C141.8,415.6,138,414.7,135,413L135,413z M372.2,336.8c4.7,38.2-1.1,67.9-14.6,75.8
		c-3,1.8-6.9,2.6-11.5,2.6c-20.7,0-51.4-16.5-84-46.6c14-14.7,28-31.4,41.3-49.9c22.6-2.4,44-6.1,63.6-11
		C369.3,317.8,371.1,327.5,372.2,336.8z M410.7,270.1c-8.6,3.7-18,7-27.7,10.1c-5.7-19.6-13.2-40-22.5-60.9
		c9.2-20.8,16.6-41.1,22.2-60.6c9.9,3.1,19.3,6.5,28.1,10.2c35.4,15.1,58.3,34.9,58.3,50.6C469,235.2,446.1,255.1,410.7,270.1
		L410.7,270.1z"/>
	<circle class="st0" cx="245.9" cy="219.5" r="45.7"/>
	<path class="st0" d="M345.5,1.1"/>
</g>
</svg>
