<?xml version="1.0" encoding="utf-8"?>
<!-- Generator: Adobe Illustrator 23.0.0, SVG Export Plug-In . SVG Version: 6.00 Build 0)  -->
<svg version="1.1" id="Слой_1" xmlns="http://www.w3.org/2000/svg" xmlns:xlink="http://www.w3.org/1999/xlink" x="0px" y="0px"
	 viewBox="0 0 358 84" style="enable-background:new 0 0 358 84;" xml:space="preserve">
<style type="text/css">
	.st0{clip-path:url(#SVGID_2_);}
	.st1{fill-rule:evenodd;clip-rule:evenodd;fill:#0084D4;}
	.st2{fill-rule:evenodd;clip-rule:evenodd;fill:#FFFFFF;}
	.st3{fill:#FFFFFF;}
</style>
<g>
	<defs>
		<rect id="SVGID_1_" width="358" height="84"/>
	</defs>
	<clipPath id="SVGID_2_">
		<use xlink:href="#SVGID_1_"  style="overflow:visible;"/>
	</clipPath>
	<g class="st0">
		<path class="st1" d="M18.5,13.9V1.4h62.6V64H18.5V31h7.8v25.3h46.9v-47H26.3v4.6H18.5z M2.3,81.7V19h62.5v32.6h-7.8V26.8H10.1v47
			H57v-5.2h7.8v13L2.3,81.7L2.3,81.7z"/>
		<path class="st2" d="M357.5,52.4 M357.1,6.6h-6.2"/>
		<path class="st3" d="M305.4,80.5h-1.6"/>
	</g>
</g>
<g>
	<path class="st3" d="M142.7,13.2H112c-0.2,0-0.4,0.2-0.4,0.5v29.8c0,0.3,0.1,0.5,0.4,0.5h30.7v8.9H112c-2,0-3.8-0.9-5.2-2.7
		c-1.4-1.8-2.1-4-2.1-6.6V13.7c0-2.6,0.7-4.8,2.1-6.6c1.4-1.8,3.2-2.7,5.2-2.7h30.7V13.2z"/>
	<path class="st3" d="M186.3,13.8v13.1c0,2.6-0.7,4.8-2.2,6.6c-1.4,1.8-3.2,2.8-5.2,2.8h-2.1l9.5,14.3v2.3h-7.6l-11-16.6h-12.3h-0.2
		v16.6h-7V4.4h30.7c2,0,3.8,0.9,5.2,2.8C185.6,9,186.3,11.2,186.3,13.8z M155.5,27.3h23.4c0.2,0,0.4-0.2,0.4-0.5V13.8
		c0-0.3-0.1-0.5-0.4-0.5h-23.4c-0.2,0-0.4,0.2-0.4,0.5v13.1C155.1,27.2,155.3,27.3,155.5,27.3z"/>
	<path class="st3" d="M223.8,4.4h8.4l-17.6,30.4v18.1h-7V34.7L189.9,4.4h8.3L211,25L223.8,4.4z"/>
	<path class="st3" d="M234.6,4.4h30.7c2,0,3.8,0.9,5.2,2.8c1.4,1.8,2.2,4,2.2,6.6v13.1c0,2.6-0.7,4.8-2.2,6.6
		c-1.4,1.8-3.2,2.8-5.2,2.8l-23.6,0.1l-0.2-0.1v16.6h-7V4.4z M265.8,26.8V13.8c0-0.3-0.1-0.5-0.4-0.5H242c-0.2,0-0.4,0.2-0.4,0.5
		v13.1c0,0.3,0.1,0.5,0.4,0.5h23.4C265.6,27.3,265.8,27.2,265.8,26.8z"/>
	<path class="st3" d="M274.7,4.4h38.2v8.9h-15.5v39.6h-7V13.2h-15.6V4.4z"/>
	<path class="st3" d="M324.1,4.4h23.4c2,0,3.7,0.9,5.2,2.7c1.4,1.8,2.2,4,2.2,6.6v29.8c0,2.6-0.7,4.8-2.2,6.6
		c-1.4,1.8-3.2,2.7-5.2,2.7h-23.4c-2,0-3.8-0.9-5.2-2.7c-1.4-1.8-2.1-4-2.1-6.6V13.7c0-2.6,0.7-4.8,2.1-6.6
		C320.3,5.3,322,4.4,324.1,4.4z M324.1,43.9h23.4c0.2,0,0.3-0.2,0.3-0.5V13.7c0-0.3-0.1-0.5-0.3-0.5h-23.4c-0.2,0-0.4,0.2-0.4,0.5
		v29.8C323.7,43.8,323.8,43.9,324.1,43.9z"/>
</g>
<g>
	<path class="st3" d="M127.4,61.7h-7.3V81h-1.5V61.7h-7.2v-1.5h16V61.7z"/>
	<path class="st3" d="M165.1,81h-1.7l-2.1-5.5c-0.2-0.5-0.4-1-0.7-1.5c-0.2-0.5-0.5-0.9-0.9-1.2c-0.3-0.3-0.7-0.6-1.1-0.8
		s-0.9-0.3-1.5-0.3h-7.3V81h-1.5V60.1h9.4c0.9,0,1.7,0.1,2.5,0.2c0.8,0.2,1.5,0.4,2.2,0.8s1.2,1,1.5,1.7c0.4,0.7,0.6,1.6,0.6,2.8
		c0,0.7-0.1,1.3-0.3,2c-0.2,0.6-0.4,1.1-0.8,1.6c-0.3,0.5-0.8,0.9-1.3,1.2c-0.5,0.3-1.2,0.6-1.9,0.7c0.4,0.3,0.7,0.6,1,0.9
		c0.3,0.3,0.5,0.6,0.7,0.9s0.3,0.7,0.5,1s0.3,0.8,0.5,1.3L165.1,81z M149.9,70.1h7.2c1,0,1.9-0.1,2.6-0.2s1.3-0.4,1.8-0.8
		c0.5-0.3,0.8-0.8,1.1-1.4c0.2-0.6,0.3-1.2,0.3-2.1c0-1.4-0.5-2.5-1.4-3.1c-0.9-0.6-2.3-0.9-4.1-0.9h-7.7V70.1z"/>
	<path class="st3" d="M203.6,81h-1.8l-2.6-6.7h-10.3c-0.4,1.1-0.8,2.2-1.2,3.3c-0.4,1.2-0.8,2.3-1.2,3.4h-1.6c0.7-1.8,1.4-3.6,2-5.3
		c0.7-1.7,1.3-3.4,2-5.2c0.7-1.7,1.3-3.4,2-5.2c0.7-1.7,1.3-3.5,2-5.3h2.2L203.6,81z M198.7,73.1l-4.8-11.6l-4.6,11.6H198.7z"/>
	<path class="st3" d="M240.9,70.4c0,7.1-3.5,10.6-10.5,10.6h-6.3V60.2h6.3c3.5,0,6.2,0.8,7.9,2.5C240,64.4,240.9,67,240.9,70.4z
		 M239.3,70.4c0-1.4-0.1-2.6-0.4-3.7c-0.3-1.1-0.8-2-1.4-2.8c-0.7-0.8-1.6-1.3-2.8-1.7c-1.1-0.4-2.6-0.6-4.4-0.6h-4.7v17.8h4.7
		c1.7,0,3.2-0.2,4.3-0.6c1.1-0.4,2.1-1,2.8-1.8c0.7-0.8,1.2-1.7,1.4-2.8S239.3,71.8,239.3,70.4z"/>
	<path class="st3" d="M264.9,81h-1.5V60.1h1.5V81z"/>
	<path class="st3" d="M304.3,81h-2l-12.7-19v19h-1.5V60.1h2.1l12.6,19v-19h1.5V81z"/>
	<path class="st3" d="M335.8,81.4c-1.5,0-2.8-0.3-4.1-0.8c-1.2-0.5-2.3-1.3-3.2-2.2c-0.9-0.9-1.6-2.1-2-3.4
		c-0.5-1.3-0.7-2.8-0.7-4.5c0-1.7,0.2-3.1,0.7-4.5c0.5-1.3,1.2-2.4,2-3.4c0.9-0.9,1.9-1.7,3.1-2.2c1.2-0.5,2.5-0.8,4-0.8
		c1.1,0,2.2,0.1,3.2,0.4c1,0.3,1.9,0.7,2.6,1.2c0.8,0.5,1.4,1.2,1.9,1.9c0.5,0.7,0.9,1.6,1,2.5h-1.6c-0.1-0.6-0.3-1.2-0.7-1.7
		c-0.4-0.5-0.9-1-1.5-1.4c-0.6-0.4-1.3-0.7-2.2-1s-1.7-0.4-2.7-0.4c-1.2,0-2.3,0.2-3.4,0.6c-1,0.4-1.9,1-2.6,1.8
		c-0.7,0.8-1.3,1.7-1.7,2.9c-0.4,1.1-0.6,2.5-0.6,4c0,1.5,0.2,2.8,0.6,4c0.4,1.2,1,2.1,1.7,2.9c0.7,0.8,1.6,1.4,2.6,1.8
		c1,0.4,2.1,0.6,3.4,0.6c1.7,0,3.2-0.3,4.5-1s2.3-1.6,3.2-2.7v-3.8h-5.8v-1.5h7.3V81h-0.9l-0.7-2.8c-0.5,0.6-1,1.1-1.6,1.5
		c-0.6,0.4-1.2,0.7-1.9,1c-0.7,0.2-1.3,0.4-2,0.5C337.3,81.3,336.5,81.4,335.8,81.4z"/>
</g>
</svg>
