<?xml version="1.0" encoding="utf-8"?>
<!-- Generator: Adobe Illustrator 23.0.0, SVG Export Plug-In . SVG Version: 6.00 Build 0)  -->
<svg version="1.1" id="Слой_1" xmlns="http://www.w3.org/2000/svg" xmlns:xlink="http://www.w3.org/1999/xlink" x="0px" y="0px"
	 viewBox="0 0 1916 438" style="enable-background:new 0 0 1916 438;" xml:space="preserve">
<style type="text/css">
	.st0{fill:#61DAFB;}
	.st1{fill:#FFFFFF;}
</style>
<g>
	<path class="st0" d="M491.3,219.5c0-32.5-40.7-63.3-103.1-82.4c14.4-63.6,8-114.2-20.2-130.4c-6.5-3.8-14.1-5.6-22.4-5.6v22.3
		c4.6,0,8.3,0.9,11.4,2.6c13.6,7.8,19.5,37.5,14.9,75.7c-1.1,9.4-2.9,19.3-5.1,29.4c-19.6-4.8-41-8.5-63.5-10.9
		c-13.5-18.5-27.5-35.3-41.6-50c32.6-30.3,63.2-46.9,84-46.9V1c-27.5,0-63.5,19.6-99.9,53.6c-36.4-33.8-72.4-53.2-99.9-53.2v22.3
		c20.7,0,51.4,16.5,84,46.6c-14,14.7-28,31.4-41.3,49.9c-22.6,2.4-44,6.1-63.6,11c-2.3-10-4-19.7-5.2-29
		c-4.7-38.2,1.1-67.9,14.6-75.8c3-1.8,6.9-2.6,11.5-2.6V1.5c-8.4,0-16,1.8-22.6,5.6c-28.1,16.2-34.4,66.7-19.9,130.1
		C41.2,156.4,0.7,187.1,0.7,219.5c0,32.5,40.7,63.3,103.1,82.4c-14.4,63.6-8,114.2,20.2,130.4c6.5,3.8,14.1,5.6,22.5,5.6
		c27.5,0,63.5-19.6,99.9-53.6c36.4,33.8,72.4,53.2,99.9,53.2c8.4,0,16-1.8,22.6-5.6c28.1-16.2,34.4-66.7,19.9-130.1
		C450.8,282.7,491.3,251.9,491.3,219.5L491.3,219.5z M361.1,152.8c-3.7,12.9-8.3,26.2-13.5,39.5c-4.1-8-8.4-16-13.1-24
		c-4.6-8-9.5-15.8-14.4-23.4C334.3,147,348,149.6,361.1,152.8L361.1,152.8z M315.3,259.3c-7.8,13.5-15.8,26.3-24.1,38.2
		c-14.9,1.3-30,2-45.2,2c-15.1,0-30.2-0.7-45-1.9c-8.3-11.9-16.4-24.6-24.2-38c-7.6-13.1-14.5-26.4-20.8-39.8
		c6.2-13.4,13.2-26.8,20.7-39.9c7.8-13.5,15.8-26.3,24.1-38.2c14.9-1.3,30-2,45.2-2c15.1,0,30.2,0.7,45,1.9
		c8.3,11.9,16.4,24.6,24.2,38c7.6,13.1,14.5,26.4,20.8,39.8C329.7,232.8,322.8,246.2,315.3,259.3L315.3,259.3z M347.6,246.3
		c5.4,13.4,10,26.8,13.8,39.8c-13.1,3.2-26.9,5.9-41.2,8c4.9-7.7,9.8-15.6,14.4-23.7C339.2,262.4,343.5,254.3,347.6,246.3
		L347.6,246.3z M246.2,353c-9.3-9.6-18.6-20.3-27.8-32c9,0.4,18.2,0.7,27.5,0.7c9.4,0,18.7-0.2,27.8-0.7
		C264.7,332.7,255.4,343.4,246.2,353z M171.8,294.1c-14.2-2.1-27.9-4.7-41-7.9c3.7-12.9,8.3-26.2,13.5-39.5c4.1,8,8.4,16,13.1,24
		S166.9,286.5,171.8,294.1z M245.7,86c9.3,9.6,18.6,20.3,27.8,32c-9-0.4-18.2-0.7-27.5-0.7c-9.4,0-18.7,0.2-27.8,0.7
		C227.2,106.3,236.5,95.6,245.7,86z M171.7,144.9c-4.9,7.7-9.8,15.6-14.4,23.7c-4.6,8-8.9,16-13,24c-5.4-13.4-10-26.8-13.8-39.8
		C143.6,149.7,157.4,147,171.7,144.9L171.7,144.9z M81.2,270.1c-35.4-15.1-58.3-34.9-58.3-50.6s22.9-35.6,58.3-50.6
		c8.6-3.7,18-7,27.7-10.1c5.7,19.6,13.2,40,22.5,60.9c-9.2,20.8-16.6,41.1-22.2,60.6C99.3,277.2,89.9,273.8,81.2,270.1L81.2,270.1z
		 M135,413c-13.6-7.8-19.5-37.5-14.9-75.7c1.1-9.4,2.9-19.3,5.1-29.4c19.6,4.8,41,8.5,63.5,10.9c13.5,18.5,27.5,35.3,41.6,50
		c-32.6,30.3-63.2,46.9-84,46.9C141.8,415.6,138,414.7,135,413L135,413z M372.2,336.8c4.7,38.2-1.1,67.9-14.6,75.8
		c-3,1.8-6.9,2.6-11.5,2.6c-20.7,0-51.4-16.5-84-46.6c14-14.7,28-31.4,41.3-49.9c22.6-2.4,44-6.1,63.6-11
		C369.3,317.8,371.1,327.5,372.2,336.8z M410.7,270.1c-8.6,3.7-18,7-27.7,10.1c-5.7-19.6-13.2-40-22.5-60.9
		c9.2-20.8,16.6-41.1,22.2-60.6c9.9,3.1,19.3,6.5,28.1,10.2c35.4,15.1,58.3,34.9,58.3,50.6C469,235.2,446.1,255.1,410.7,270.1
		L410.7,270.1z"/>
	<circle class="st0" cx="245.9" cy="219.5" r="45.7"/>
	<path class="st0" d="M345.5,1.1"/>
</g>
<g>
	<path class="st1" d="M740.9,48.1c-13.4,0-25.9,2.1-37.5,6.3c-11.6,4.2-21.7,10.5-30.3,18.9c-8.6,8.4-15.3,18.8-20.3,31.3
		c-4.9,12.5-7.4,27-7.4,43.5c0,16.4,2.3,30.7,6.9,42.8c4.6,12.1,11.1,22.1,19.5,30c8.4,7.9,18.6,13.8,30.5,17.6
		c11.9,3.8,25.1,5.7,39.7,5.7c4,0,8.2-0.2,12.7-0.6c4.5-0.4,9-1,13.5-1.8c4.5-0.8,8.9-1.7,13.2-2.7c4.3-1,8.1-2.1,11.5-3.3v25.7
		c-7,2.7-15.2,4.9-24.5,6.3c-9.3,1.5-18.8,2.2-28.6,2.2c-19.9,0-37.5-2.8-52.9-8.3s-28.3-13.5-38.7-23.9c-10.4-10.4-18.3-23-23.7-38
		c-5.4-15-8-31.9-8-50.8c0-18.6,2.8-35.7,8.5-51.3c5.7-15.6,13.8-29,24.5-40.2c10.7-11.2,23.6-19.9,38.8-26.2
		c15.2-6.3,32.3-9.4,51.2-9.4c5,0,9.9,0.2,14.8,0.6c4.9,0.4,9.6,1,14,1.8c4.5,0.8,8.6,1.7,12.4,2.8c3.8,1.1,7.1,2.2,9.8,3.4v25.7
		c-7.2-2.4-15.1-4.4-23.7-6C758.2,48.9,749.6,48.1,740.9,48.1z"/>
	<path class="st1" d="M870.2,166.8v99h-29.1V26.6H903c10.5,0,19.4,0.4,26.7,1.2c7.3,0.8,14,2,20.1,3.7c16.7,4.5,29.4,12.2,38.2,23.1
		c8.8,10.9,13.2,24.5,13.2,40.8c0,9.7-1.5,18.3-4.6,25.9c-3.1,7.6-7.4,14.2-13,19.8c-5.6,5.6-12.3,10.2-20.1,13.8
		c-7.8,3.6-16.5,6.2-26,7.9v0.7l70.8,102.2H979l-73.6-99H870.2z M870.2,52.9v87.6H899c8.9,0,16.6-0.3,22.9-0.9
		c6.3-0.6,12-1.7,17-3.2c10.1-3.1,17.9-8,23.4-14.8c5.5-6.8,8.2-15.7,8.2-26.6c-0.1-10.2-2.7-18.5-7.9-24.8
		c-5.1-6.3-12.2-10.8-21.3-13.5c-4.3-1.3-9.4-2.3-15.4-2.9c-6-0.6-13.5-0.9-22.7-0.9H870.2z"/>
	<path class="st1" d="M1150.6,169.6v96.1h-29.1v-96.1l-87-143h31.8l69.3,116.2h0.9l69.3-116.2h31.8L1150.6,169.6z"/>
	<path class="st1" d="M1304.3,265.8h-29.1V26.6h66.2c9.9,0,19,0.6,27.4,1.8c8.4,1.2,16.1,3,23.1,5.5c14.3,5.1,25.1,12.8,32.5,23
		c7.4,10.2,11.1,22.7,11.1,37.6c0,12.2-2.4,22.8-7.2,32.1c-4.8,9.2-11.8,16.9-21,23.1c-9.2,6.2-20.3,10.9-33.5,14
		c-13.1,3.2-28,4.7-44.7,4.7c-8,0-16.2-0.4-24.8-1.1V265.8z M1304.3,140.8c3.9,0.5,8,0.8,12.3,1.1c4.3,0.2,8.3,0.4,12.2,0.4
		c13.7,0,25.4-1.1,35-3.2s17.5-5.3,23.6-9.4s10.5-9.1,13.2-15c2.7-5.9,4.1-12.6,4.1-20.1c0-9.3-2.2-16.9-6.7-22.9
		c-4.5-6-10.8-10.5-19-13.6c-5.1-1.9-11-3.2-17.7-4c-6.7-0.8-14.4-1.2-23.2-1.2h-33.8V140.8z"/>
	<path class="st1" d="M1569.7,265.8h-29.1V52.9h-79.9V26.6h188.9v26.3h-79.9V265.8z"/>
	<path class="st1" d="M1891.9,146.4c0,18.1-2.6,34.7-7.8,49.9c-5.2,15.1-12.6,28.2-22.3,39.1c-9.7,11-21.4,19.5-35,25.6
		c-13.7,6.1-28.9,9.2-45.8,9.2c-17.5,0-33.2-3.1-47-9.2c-13.8-6.1-25.5-14.7-35.1-25.6c-9.6-11-16.9-24-22-39.1
		c-5.1-15.1-7.6-31.7-7.6-49.9c0-18.2,2.6-34.9,7.9-50.1s12.7-28.3,22.3-39.2c9.6-11,21.3-19.5,35-25.6c13.7-6.1,29.1-9.2,46.1-9.2
		c17.4,0,32.9,3.1,46.7,9.2c13.8,6.1,25.4,14.7,35,25.6c9.6,11,16.9,24,22,39.2S1891.9,128.1,1891.9,146.4z M1863,146.4
		c0-16.1-2.1-30.3-6.3-42.5c-4.2-12.3-10-22.5-17.4-30.7c-7.4-8.2-16.1-14.4-26.2-18.7c-10.1-4.2-20.9-6.3-32.4-6.3
		c-11.6,0-22.4,2.1-32.4,6.3c-10.1,4.2-18.8,10.5-26.2,18.7c-7.4,8.2-13.2,18.5-17.4,30.7c-4.2,12.3-6.3,26.4-6.3,42.5
		s2.1,30.2,6.4,42.4c4.3,12.2,10.1,22.4,17.5,30.6c7.4,8.2,16.1,14.4,26.2,18.6c10.1,4.2,20.9,6.3,32.6,6.3
		c11.6,0,22.3-2.1,32.3-6.3c9.9-4.2,18.6-10.4,26-18.6c7.4-8.2,13.2-18.4,17.4-30.6C1860.8,176.6,1863,162.5,1863,146.4z"/>
</g>
<g>
	<path class="st1" d="M738.6,329.7h-31V412h-6.5v-82.3h-30.7v-6.5h68.2V329.7z"/>
	<path class="st1" d="M1008.4,412h-7.1l-8.8-23.6c-0.9-2.3-1.8-4.4-2.9-6.4c-1.1-2-2.3-3.7-3.7-5.2c-1.4-1.5-3-2.7-4.8-3.5
		c-1.8-0.9-3.9-1.3-6.4-1.3h-31v40h-6.5v-88.8h40c3.7,0,7.3,0.3,10.8,1c3.5,0.7,6.6,1.9,9.3,3.6c2.7,1.7,4.9,4.1,6.5,7.2
		c1.6,3.1,2.4,7,2.4,11.7c0,3-0.4,5.7-1.1,8.3c-0.7,2.6-1.8,4.9-3.3,6.9s-3.4,3.8-5.7,5.2c-2.3,1.4-5,2.5-8.1,3.1
		c1.7,1.3,3.1,2.5,4.1,3.7c1.1,1.2,2,2.5,2.8,3.8c0.8,1.4,1.5,2.8,2.1,4.5s1.3,3.5,2.1,5.6L1008.4,412z M943.6,365.5h30.8
		c4.4,0,8.1-0.3,11.3-1c3.1-0.6,5.7-1.7,7.7-3.2c2-1.5,3.5-3.4,4.5-5.8c1-2.4,1.5-5.3,1.5-8.8c0-6.1-1.9-10.5-5.8-13.1
		c-3.9-2.6-9.6-3.9-17.3-3.9h-32.7V365.5z"/>
	<path class="st1" d="M1280.9,412h-7.8l-10.9-28.5h-43.7c-1.6,4.5-3.3,9.2-5.1,14.2c-1.8,5-3.6,9.8-5.3,14.3h-6.9
		c2.9-7.7,5.8-15.2,8.6-22.5c2.8-7.3,5.7-14.7,8.5-21.9c2.8-7.3,5.6-14.6,8.5-21.9c2.8-7.3,5.7-14.8,8.6-22.5h9.2L1280.9,412z
		 M1260.4,378.4l-20.6-49.4l-19.5,49.4H1260.4z"/>
	<path class="st1" d="M1549,366.9c0,30-14.9,45.1-44.8,45.1h-26.8v-88.7h26.8c15,0,26.2,3.6,33.6,10.8S1549,352.3,1549,366.9z
		 M1542.1,366.9c0-5.8-0.6-11-1.7-15.6c-1.2-4.6-3.2-8.5-6.1-11.7c-2.9-3.2-6.8-5.7-11.7-7.3c-4.9-1.7-11.1-2.5-18.5-2.5h-20.2v75.8
		h20.2c7.4,0,13.5-0.9,18.4-2.6c4.9-1.7,8.8-4.3,11.7-7.6c2.9-3.3,5-7.4,6.2-12.1C1541.5,378.5,1542.1,373,1542.1,366.9z"/>
	<path class="st1" d="M1815.1,412H1751v-88.8h61.9v6.5h-55.4v32.8h52v6.5h-52v36.5h57.6V412z"/>
</g>
</svg>
