<svg xmlns="http://www.w3.org/2000/svg" width="84" height="56" fill="none" viewBox="0 0 84 56">
    <path fill="#fff" fill-rule="evenodd" d="M66.003 24.994h-6.128v5.291h6.837v1.384h-8.477V17.063h8.419v1.384h-6.78v5.22h6.129v1.327zM14.12 31.657h1.64V17.063h-1.64v14.594zm-8.523-1.372H2.19v-5.349h3.535c1.86 0 3.058 1.082 3.058 2.744 0 1.628-1.186 2.605-3.186 2.605zM2.19 18.448h2.977c1.86 0 2.93.907 2.93 2.395 0 1.71-1.081 2.791-2.744 2.791H2.179v-5.186h.011zm5.198 5.698c1.558-.477 2.395-1.686 2.395-3.43 0-2.291-1.71-3.652-4.616-3.652H.55v14.593h5.046c3.058 0 4.872-1.488 4.872-3.988 0-1.744-1.14-3.07-3.081-3.523zm16.011-5.698h-4.116v-1.385h9.837v1.384h-4.082v13.209H23.4V18.448zm8.081 0h4.128v13.21h1.64v-13.21h4.08v-1.385h-9.836v1.384l-.012.001zm19.418 7.36c1.942-.453 3.175-1.918 3.175-4.279 0-2.802-1.896-4.465-5.117-4.465h-4.209v14.593h1.64v-5.65h3.15l3.175 5.65h1.942l-3.326-5.418-.43-.43zm25.465-1.593l4.337-7.127H78.71l-3.255 5.79-.128.558-.128-.558-3.256-5.79H69.98l4.337 7.127-4.465 7.454h2.012l3.349-6.001.127-.558.128.558 3.36 6h2.012l-4.476-7.453zm-29.988.5h2.78c1.941 0 3.255-1.058 3.255-3.174 0-1.942-1.163-3.081-3.151-3.081h-2.895v6.255h.011z" clip-rule="evenodd"/>
    <path fill="#fff" d="M5.59 38.515h2.365v3.226a6.824 6.824 0 0 1-2.268.347c-.972 0-1.722-.287-2.25-.861-.527-.578-.79-1.39-.79-2.44 0-1.034.297-1.842.892-2.425.594-.586 1.413-.88 2.456-.88.671 0 1.307.13 1.907.388l-.369.874a3.712 3.712 0 0 0-1.564-.36c-.686 0-1.228.215-1.626.646-.399.43-.598 1.02-.598 1.766 0 .785.179 1.383.536 1.793.36.408.878.611 1.552.611.34 0 .703-.042 1.09-.127v-1.657H5.59v-.9zM17.603 42v-6.425h1.05V41.1h2.72V42h-3.77zm18.682-3.221c0 1.046-.262 1.859-.787 2.439-.521.58-1.26.87-2.219.87-.97 0-1.715-.287-2.237-.861-.518-.578-.777-1.396-.777-2.457 0-1.06.26-1.875.782-2.443.524-.569 1.271-.853 2.24-.853.956 0 1.694.289 2.216.866.521.577.782 1.39.782 2.439zm-4.904 0c0 .79.16 1.391.479 1.802.319.407.792.61 1.42.61.623 0 1.093-.202 1.41-.606.32-.404.479-1.006.479-1.806 0-.788-.158-1.386-.475-1.793-.313-.407-.782-.611-1.406-.611-.63 0-1.106.204-1.428.61-.32.408-.48 1.006-.48 1.794zm14.384-3.204h1.907c.885 0 1.523.13 1.916.387.396.258.593.665.593 1.222 0 .375-.096.687-.29.936-.193.249-.471.405-.835.47v.044c.452.085.783.253.993.505.214.25.321.588.321 1.015 0 .577-.202 1.03-.606 1.358-.401.325-.961.488-1.679.488h-2.32v-6.425zm1.05 2.654h1.01c.44 0 .761-.068.963-.206.203-.14.303-.378.303-.712 0-.302-.11-.52-.33-.655-.216-.134-.562-.202-1.036-.202h-.91v1.776zm0 .853v2.035h1.116c.44 0 .77-.084.993-.25.226-.17.339-.437.339-.8 0-.335-.114-.582-.343-.743-.228-.161-.575-.242-1.041-.242h-1.064zM63.791 42l-.641-1.784h-2.457L60.065 42h-1.108l2.404-6.451h1.143L64.907 42h-1.116zm-.918-2.69l-.602-1.748a13.353 13.353 0 0 1-.343-1.107 9.85 9.85 0 0 1-.347 1.181L61 39.31h1.872zM73.856 42v-6.425h1.05V41.1h2.72V42h-3.77z"/>
</svg>
